<?xml version="1.0" encoding="utf-8" standalone="no"?>
<!DOCTYPE svg PUBLIC "-//W3C//DTD SVG 1.1//EN"
  "http://www.w3.org/Graphics/SVG/1.1/DTD/svg11.dtd">
<svg xmlns:xlink="http://www.w3.org/1999/xlink" width="576pt" height="432pt" viewBox="0 0 576 432" xmlns="http://www.w3.org/2000/svg" version="1.1">
 <metadata>
  <rdf:RDF xmlns:dc="http://purl.org/dc/elements/1.1/" xmlns:cc="http://creativecommons.org/ns#" xmlns:rdf="http://www.w3.org/1999/02/22-rdf-syntax-ns#">
   <cc:Work>
    <dc:type rdf:resource="http://purl.org/dc/dcmitype/StillImage"/>
    <dc:date>2026-06-26T11:47:04.159518</dc:date>
    <dc:format>image/svg+xml</dc:format>
    <dc:creator>
     <cc:Agent>
      <dc:title>Matplotlib v3.10.7, https://matplotlib.org/</dc:title>
     </cc:Agent>
    </dc:creator>
   </cc:Work>
  </rdf:RDF>
 </metadata>
 <defs>
  <style type="text/css">*{stroke-linejoin: round; stroke-linecap: butt}</style>
 </defs>
 <g id="figure_1">
  <g id="patch_1">
   <path d="M 0 432 
L 576 432 
L 576 0 
L 0 0 
z
" style="fill: #ffffff"/>
  </g>
  <g id="axes_1">
   <g id="patch_2">
    <path d="M 88.79 363.14 
L 541.44 363.14 
L 541.44 34.56 
L 88.79 34.56 
z
" style="fill: #ffffff"/>
   </g>
   <g id="patch_3">
    <path d="M 109.365 363.14 
L 177.948333 363.14 
L 177.948333 51.42819 
L 109.365 51.42819 
z
" clip-path="url(#p78641f0e11)" style="fill: #d55e00"/>
   </g>
   <g id="patch_4">
    <path d="M 280.823333 363.14 
L 349.406667 363.14 
L 349.406667 102.002327 
L 280.823333 102.002327 
z
" clip-path="url(#p78641f0e11)" style="fill: #0072b2"/>
   </g>
   <g id="patch_5">
    <path d="M 452.281667 363.14 
L 520.865 363.14 
L 520.865 71.205288 
L 452.281667 71.205288 
z
" clip-path="url(#p78641f0e11)" style="fill: #56b4e9"/>
   </g>
   <g id="matplotlib.axis_1">
    <g id="xtick_1">
     <g id="line2d_1">
      <path d="M 143.656667 363.14 
L 143.656667 34.56 
" clip-path="url(#p78641f0e11)" style="fill: none; stroke: #b0b0b0; stroke-opacity: 0.5; stroke-width: 0.8; stroke-linecap: square"/>
     </g>
     <g id="line2d_2">
      <defs>
       <path id="m300dec6e0a" d="M 0 0 
L 0 2 
" style="stroke: #000000; stroke-width: 2"/>
      </defs>
      <g>
       <use xlink:href="#m300dec6e0a" x="143.656667" y="363.14" style="stroke: #000000; stroke-width: 2"/>
      </g>
     </g>
     <g id="text_1">
      <!-- CAN-FLOW -->
      <g transform="translate(71.609167 391.425) scale(0.32 -0.32)">
       <defs>
        <path id="SourceSansPro-Regular-43" d="M 2163 -77 
C 2707 -77 3117 147 3450 531 
L 3155 864 
C 2886 570 2586 390 2182 390 
C 1389 390 883 1056 883 2112 
C 883 3155 1408 3808 2202 3808 
C 2560 3808 2835 3648 3059 3411 
L 3347 3757 
C 3104 4032 2707 4275 2195 4275 
C 1126 4275 333 3450 333 2099 
C 333 730 1114 -77 2163 -77 
z
" transform="scale(0.015625)"/>
        <path id="SourceSansPro-Regular-41" d="M 1299 2349 
C 1453 2816 1587 3277 1715 3763 
L 1741 3763 
C 1875 3277 2010 2816 2163 2349 
L 2362 1709 
L 1101 1709 
L 1299 2349 
z
M 19 0 
L 563 0 
L 966 1280 
L 2496 1280 
L 2893 0 
L 3462 0 
L 2042 4198 
L 1440 4198 
L 19 0 
z
" transform="scale(0.015625)"/>
        <path id="SourceSansPro-Regular-4e" d="M 576 0 
L 1082 0 
L 1082 2195 
C 1082 2637 1043 3085 1011 3507 
L 1037 3507 
L 1491 2643 
L 3014 0 
L 3565 0 
L 3565 4198 
L 3059 4198 
L 3059 2029 
C 3059 1587 3098 1114 3123 691 
L 3098 691 
L 2643 1562 
L 1126 4198 
L 576 4198 
L 576 0 
z
" transform="scale(0.015625)"/>
        <path id="SourceSansPro-Regular-2d" d="M 262 1402 
L 1734 1402 
L 1734 1805 
L 262 1805 
L 262 1402 
z
" transform="scale(0.015625)"/>
        <path id="SourceSansPro-Regular-46" d="M 576 0 
L 1107 0 
L 1107 1882 
L 2707 1882 
L 2707 2330 
L 1107 2330 
L 1107 3750 
L 2995 3750 
L 2995 4198 
L 576 4198 
L 576 0 
z
" transform="scale(0.015625)"/>
        <path id="SourceSansPro-Regular-4c" d="M 576 0 
L 2944 0 
L 2944 454 
L 1107 454 
L 1107 4198 
L 576 4198 
L 576 0 
z
" transform="scale(0.015625)"/>
        <path id="SourceSansPro-Regular-4f" d="M 2125 -77 
C 3181 -77 3923 768 3923 2118 
C 3923 3456 3181 4275 2125 4275 
C 1069 4275 333 3462 333 2118 
C 333 768 1069 -77 2125 -77 
z
M 2125 390 
C 1376 390 883 1069 883 2118 
C 883 3162 1376 3808 2125 3808 
C 2874 3808 3366 3162 3366 2118 
C 3366 1069 2874 390 2125 390 
z
" transform="scale(0.015625)"/>
        <path id="SourceSansPro-Regular-57" d="M 1037 0 
L 1670 0 
L 2291 2528 
C 2362 2854 2438 3155 2502 3482 
L 2528 3482 
C 2592 3155 2656 2854 2733 2528 
L 3366 0 
L 4006 0 
L 4877 4198 
L 4365 4198 
L 3923 1914 
C 3840 1466 3763 1011 3686 557 
L 3661 557 
C 3558 1011 3456 1472 3354 1914 
L 2771 4198 
L 2285 4198 
L 1702 1914 
C 1606 1466 1504 1011 1408 557 
L 1382 557 
C 1306 1011 1216 1459 1139 1914 
L 698 4198 
L 147 4198 
L 1037 0 
z
" transform="scale(0.015625)"/>
       </defs>
       <use xlink:href="#SourceSansPro-Regular-43"/>
       <use xlink:href="#SourceSansPro-Regular-41" transform="translate(57.099991 0)"/>
       <use xlink:href="#SourceSansPro-Regular-4e" transform="translate(111.499985 0)"/>
       <use xlink:href="#SourceSansPro-Regular-2d" transform="translate(176.199982 0)"/>
       <use xlink:href="#SourceSansPro-Regular-46" transform="translate(207.299973 0)"/>
       <use xlink:href="#SourceSansPro-Regular-4c" transform="translate(256.699966 0)"/>
       <use xlink:href="#SourceSansPro-Regular-4f" transform="translate(305.299957 0)"/>
       <use xlink:href="#SourceSansPro-Regular-57" transform="translate(371.699951 0)"/>
      </g>
     </g>
    </g>
    <g id="xtick_2">
     <g id="line2d_3">
      <path d="M 315.115 363.14 
L 315.115 34.56 
" clip-path="url(#p78641f0e11)" style="fill: none; stroke: #b0b0b0; stroke-opacity: 0.5; stroke-width: 0.8; stroke-linecap: square"/>
     </g>
     <g id="line2d_4">
      <g>
       <use xlink:href="#m300dec6e0a" x="315.115" y="363.14" style="stroke: #000000; stroke-width: 2"/>
      </g>
     </g>
     <g id="text_2">
      <!-- cVAE  -->
      <g transform="translate(279.2425 391.425) scale(0.32 -0.32)">
       <defs>
        <path id="SourceSansPro-Regular-63" d="M 1754 -77 
C 2125 -77 2477 70 2758 320 
L 2528 672 
C 2336 499 2086 358 1798 358 
C 1229 358 838 838 838 1549 
C 838 2266 1248 2752 1811 2752 
C 2061 2752 2253 2637 2432 2477 
L 2701 2822 
C 2483 3021 2202 3187 1792 3187 
C 992 3187 294 2592 294 1549 
C 294 518 928 -77 1754 -77 
z
" transform="scale(0.015625)"/>
        <path id="SourceSansPro-Regular-56" d="M 1344 0 
L 1965 0 
L 3296 4198 
L 2752 4198 
L 2080 1933 
C 1933 1434 1830 1037 1677 544 
L 1651 544 
C 1491 1037 1395 1434 1242 1933 
L 570 4198 
L 0 4198 
L 1344 0 
z
" transform="scale(0.015625)"/>
        <path id="SourceSansPro-Regular-45" d="M 576 0 
L 3059 0 
L 3059 454 
L 1107 454 
L 1107 1978 
L 2701 1978 
L 2701 2432 
L 1107 2432 
L 1107 3750 
L 2995 3750 
L 2995 4198 
L 576 4198 
L 576 0 
z
" transform="scale(0.015625)"/>
        <path id="SourceSansPro-Regular-20" transform="scale(0.015625)"/>
       </defs>
       <use xlink:href="#SourceSansPro-Regular-63"/>
       <use xlink:href="#SourceSansPro-Regular-56" transform="translate(45.599991 0)"/>
       <use xlink:href="#SourceSansPro-Regular-41" transform="translate(97.099976 0)"/>
       <use xlink:href="#SourceSansPro-Regular-45" transform="translate(151.499969 0)"/>
       <use xlink:href="#SourceSansPro-Regular-20" transform="translate(204.199966 0)"/>
      </g>
     </g>
    </g>
    <g id="xtick_3">
     <g id="line2d_5">
      <path d="M 486.573333 363.14 
L 486.573333 34.56 
" clip-path="url(#p78641f0e11)" style="fill: none; stroke: #b0b0b0; stroke-opacity: 0.5; stroke-width: 0.8; stroke-linecap: square"/>
     </g>
     <g id="line2d_6">
      <g>
       <use xlink:href="#m300dec6e0a" x="486.573333" y="363.14" style="stroke: #000000; stroke-width: 2"/>
      </g>
     </g>
     <g id="text_3">
      <!-- cVAE -->
      <g transform="translate(453.900833 391.425) scale(0.32 -0.32)">
       <use xlink:href="#SourceSansPro-Regular-63"/>
       <use xlink:href="#SourceSansPro-Regular-56" transform="translate(45.599991 0)"/>
       <use xlink:href="#SourceSansPro-Regular-41" transform="translate(97.099976 0)"/>
       <use xlink:href="#SourceSansPro-Regular-45" transform="translate(151.499969 0)"/>
      </g>
     </g>
    </g>
   </g>
   <g id="matplotlib.axis_2">
    <g id="ytick_1">
     <g id="line2d_7">
      <path d="M 88.79 260.395654 
L 541.44 260.395654 
" clip-path="url(#p78641f0e11)" style="fill: none; stroke: #b0b0b0; stroke-opacity: 0.5; stroke-width: 0.8; stroke-linecap: square"/>
     </g>
     <g id="line2d_8">
      <defs>
       <path id="md1a02367da" d="M 0 0 
L -2 0 
" style="stroke: #000000; stroke-width: 2"/>
      </defs>
      <g>
       <use xlink:href="#md1a02367da" x="88.79" y="260.395654" style="stroke: #000000; stroke-width: 2"/>
      </g>
     </g>
     <g id="text_4">
      <!-- 2 -->
      <g transform="translate(67.385 271.788154) scale(0.32 -0.32)">
       <defs>
        <path id="SourceSansPro-Regular-32" d="M 256 0 
L 2893 0 
L 2893 454 
L 1709 454 
C 1498 454 1248 435 1024 416 
C 1990 1427 2688 2189 2688 2957 
C 2688 3680 2221 4160 1466 4160 
C 934 4160 570 3910 230 3539 
L 531 3238 
C 768 3514 1062 3731 1402 3731 
C 1920 3731 2176 3398 2176 2931 
C 2176 2272 1485 1536 256 314 
L 256 0 
z
" transform="scale(0.015625)"/>
       </defs>
       <use xlink:href="#SourceSansPro-Regular-32"/>
      </g>
     </g>
    </g>
    <g id="ytick_2">
     <g id="line2d_9">
      <path d="M 88.79 157.651309 
L 541.44 157.651309 
" clip-path="url(#p78641f0e11)" style="fill: none; stroke: #b0b0b0; stroke-opacity: 0.5; stroke-width: 0.8; stroke-linecap: square"/>
     </g>
     <g id="line2d_10">
      <g>
       <use xlink:href="#md1a02367da" x="88.79" y="157.651309" style="stroke: #000000; stroke-width: 2"/>
      </g>
     </g>
     <g id="text_5">
      <!-- 4 -->
      <g transform="translate(67.385 169.043809) scale(0.32 -0.32)">
       <defs>
        <path id="SourceSansPro-Regular-34" d="M 1946 0 
L 2445 0 
L 2445 1126 
L 3002 1126 
L 3002 1549 
L 2445 1549 
L 2445 4083 
L 1856 4083 
L 109 1472 
L 109 1126 
L 1946 1126 
L 1946 0 
z
M 666 1549 
L 1619 2944 
C 1734 3142 1850 3322 1952 3520 
L 1978 3520 
C 1965 3302 1946 2950 1946 2733 
L 1946 1549 
L 666 1549 
z
" transform="scale(0.015625)"/>
       </defs>
       <use xlink:href="#SourceSansPro-Regular-34"/>
      </g>
     </g>
    </g>
    <g id="ytick_3">
     <g id="line2d_11">
      <path d="M 88.79 54.906963 
L 541.44 54.906963 
" clip-path="url(#p78641f0e11)" style="fill: none; stroke: #b0b0b0; stroke-opacity: 0.5; stroke-width: 0.8; stroke-linecap: square"/>
     </g>
     <g id="line2d_12">
      <g>
       <use xlink:href="#md1a02367da" x="88.79" y="54.906963" style="stroke: #000000; stroke-width: 2"/>
      </g>
     </g>
     <g id="text_6">
      <!-- 6 -->
      <g transform="translate(67.385 66.299463) scale(0.32 -0.32)">
       <defs>
        <path id="SourceSansPro-Regular-36" d="M 1715 -77 
C 2374 -77 2925 454 2925 1235 
C 2925 2074 2464 2496 1760 2496 
C 1427 2496 1062 2298 806 1984 
C 832 3277 1312 3718 1882 3718 
C 2138 3718 2387 3597 2554 3398 
L 2848 3725 
C 2618 3974 2304 4160 1862 4160 
C 1050 4160 307 3526 307 1888 
C 307 576 915 -77 1715 -77 
z
M 1715 339 
C 1197 339 883 768 819 1562 
C 1075 1939 1408 2099 1670 2099 
C 2176 2099 2426 1766 2426 1235 
C 2426 698 2118 339 1715 339 
z
" transform="scale(0.015625)"/>
       </defs>
       <use xlink:href="#SourceSansPro-Regular-36"/>
      </g>
     </g>
    </g>
    <g id="text_7">
     <!-- MMD -->
     <g transform="translate(56.825 231.955) rotate(-90) scale(0.32 -0.32)">
      <defs>
       <path id="SourceSansPro-Regular-4d" d="M 576 0 
L 1056 0 
L 1056 2310 
C 1056 2682 1018 3181 992 3552 
L 1018 3552 
L 1350 2598 
L 2144 422 
L 2496 422 
L 3290 2598 
L 3622 3552 
L 3648 3552 
C 3622 3181 3578 2682 3578 2310 
L 3578 0 
L 4077 0 
L 4077 4198 
L 3430 4198 
L 2637 1958 
C 2534 1670 2451 1370 2349 1082 
L 2323 1082 
C 2221 1370 2125 1670 2022 1958 
L 1216 4198 
L 576 4198 
L 576 0 
z
" transform="scale(0.015625)"/>
       <path id="SourceSansPro-Regular-44" d="M 576 0 
L 1651 0 
C 2918 0 3610 781 3610 2118 
C 3610 3450 2918 4198 1626 4198 
L 576 4198 
L 576 0 
z
M 1107 435 
L 1107 3763 
L 1587 3763 
C 2566 3763 3059 3174 3059 2118 
C 3059 1056 2566 435 1587 435 
L 1107 435 
z
" transform="scale(0.015625)"/>
      </defs>
      <use xlink:href="#SourceSansPro-Regular-4d"/>
      <use xlink:href="#SourceSansPro-Regular-4d" transform="translate(72.699982 0)"/>
      <use xlink:href="#SourceSansPro-Regular-44" transform="translate(145.399963 0)"/>
     </g>
    </g>
   </g>
   <g id="LineCollection_1">
    <path d="M 143.656667 52.649713 
L 143.656667 50.206667 
" clip-path="url(#p78641f0e11)" style="fill: none; stroke: #000000; stroke-width: 1.5"/>
    <path d="M 315.115 103.048092 
L 315.115 100.956561 
" clip-path="url(#p78641f0e11)" style="fill: none; stroke: #000000; stroke-width: 1.5"/>
    <path d="M 486.573333 72.701441 
L 486.573333 69.709134 
" clip-path="url(#p78641f0e11)" style="fill: none; stroke: #000000; stroke-width: 1.5"/>
   </g>
   <g id="line2d_13">
    <defs>
     <path id="mafc09a5ba6" d="M 12 0 
L -12 -0 
" style="stroke: #000000"/>
    </defs>
    <g clip-path="url(#p78641f0e11)">
     <use xlink:href="#mafc09a5ba6" x="143.656667" y="52.649713" style="fill: #1f77b4; stroke: #000000"/>
     <use xlink:href="#mafc09a5ba6" x="315.115" y="103.048092" style="fill: #1f77b4; stroke: #000000"/>
     <use xlink:href="#mafc09a5ba6" x="486.573333" y="72.701441" style="fill: #1f77b4; stroke: #000000"/>
    </g>
   </g>
   <g id="line2d_14">
    <g clip-path="url(#p78641f0e11)">
     <use xlink:href="#mafc09a5ba6" x="143.656667" y="50.206667" style="fill: #1f77b4; stroke: #000000"/>
     <use xlink:href="#mafc09a5ba6" x="315.115" y="100.956561" style="fill: #1f77b4; stroke: #000000"/>
     <use xlink:href="#mafc09a5ba6" x="486.573333" y="69.709134" style="fill: #1f77b4; stroke: #000000"/>
    </g>
   </g>
   <g id="patch_6">
    <path d="M 88.79 363.14 
L 88.79 34.56 
" style="fill: none; stroke: #000000; stroke-width: 2; stroke-linejoin: miter; stroke-linecap: square"/>
   </g>
   <g id="patch_7">
    <path d="M 541.44 363.14 
L 541.44 34.56 
" style="fill: none; stroke: #000000; stroke-width: 2; stroke-linejoin: miter; stroke-linecap: square"/>
   </g>
   <g id="patch_8">
    <path d="M 88.79 363.14 
L 541.44 363.14 
" style="fill: none; stroke: #000000; stroke-width: 2; stroke-linejoin: miter; stroke-linecap: square"/>
   </g>
   <g id="patch_9">
    <path d="M 88.79 34.56 
L 541.44 34.56 
" style="fill: none; stroke: #000000; stroke-width: 2; stroke-linejoin: miter; stroke-linecap: square"/>
   </g>
  </g>
 </g>
 <defs>
  <clipPath id="p78641f0e11">
   <rect x="88.79" y="34.56" width="452.65" height="328.58"/>
  </clipPath>
 </defs>
</svg>
