<?xml version="1.0" encoding="utf-8" standalone="no"?>
<!DOCTYPE svg PUBLIC "-//W3C//DTD SVG 1.1//EN"
  "http://www.w3.org/Graphics/SVG/1.1/DTD/svg11.dtd">
<svg xmlns:xlink="http://www.w3.org/1999/xlink" width="587.943479pt" height="442.8pt" viewBox="0 0 587.943479 442.8" xmlns="http://www.w3.org/2000/svg" version="1.1">
 <metadata>
  <rdf:RDF xmlns:dc="http://purl.org/dc/elements/1.1/" xmlns:cc="http://creativecommons.org/ns#" xmlns:rdf="http://www.w3.org/1999/02/22-rdf-syntax-ns#">
   <cc:Work>
    <dc:type rdf:resource="http://purl.org/dc/dcmitype/StillImage"/>
    <dc:date>2026-07-30T12:31:37.830698</dc:date>
    <dc:format>image/svg+xml</dc:format>
    <dc:creator>
     <cc:Agent>
      <dc:title>Matplotlib v3.10.7, https://matplotlib.org/</dc:title>
     </cc:Agent>
    </dc:creator>
   </cc:Work>
  </rdf:RDF>
 </metadata>
 <defs>
  <style type="text/css">*{stroke-linejoin: round; stroke-linecap: butt}</style>
 </defs>
 <g id="figure_1">
  <g id="patch_1">
   <path d="M 0 442.8 
L 587.943479 442.8 
L 587.943479 0 
L 0 0 
z
" style="fill: #ffffff"/>
  </g>
  <g id="axes_1">
   <g id="patch_2">
    <path d="M 83.25 423.6 
L 580.743479 423.6 
L 580.743479 7.2 
L 83.25 7.2 
z
" style="fill: #ffffff"/>
   </g>
   <g id="matplotlib.axis_1">
    <g id="xtick_1">
     <g id="line2d_1">
      <path d="M 105.86334 423.6 
L 105.86334 7.2 
" clip-path="url(#p7102ba78be)" style="fill: none; stroke: #b0b0b0; stroke-opacity: 0.3; stroke-width: 0.8; stroke-linecap: square"/>
     </g>
     <g id="line2d_2">
      <defs>
       <path id="me53b110988" d="M 0 0 
L 0 12 
" style="stroke: #000000; stroke-width: 4"/>
      </defs>
      <g>
       <use xlink:href="#me53b110988" x="105.86334" y="423.6" style="stroke: #000000; stroke-width: 4"/>
      </g>
     </g>
    </g>
    <g id="xtick_2">
     <g id="line2d_3">
      <path d="M 218.93004 423.6 
L 218.93004 7.2 
" clip-path="url(#p7102ba78be)" style="fill: none; stroke: #b0b0b0; stroke-opacity: 0.3; stroke-width: 0.8; stroke-linecap: square"/>
     </g>
     <g id="line2d_4">
      <g>
       <use xlink:href="#me53b110988" x="218.93004" y="423.6" style="stroke: #000000; stroke-width: 4"/>
      </g>
     </g>
    </g>
    <g id="xtick_3">
     <g id="line2d_5">
      <path d="M 331.99674 423.6 
L 331.99674 7.2 
" clip-path="url(#p7102ba78be)" style="fill: none; stroke: #b0b0b0; stroke-opacity: 0.3; stroke-width: 0.8; stroke-linecap: square"/>
     </g>
     <g id="line2d_6">
      <g>
       <use xlink:href="#me53b110988" x="331.99674" y="423.6" style="stroke: #000000; stroke-width: 4"/>
      </g>
     </g>
    </g>
    <g id="xtick_4">
     <g id="line2d_7">
      <path d="M 445.063439 423.6 
L 445.063439 7.2 
" clip-path="url(#p7102ba78be)" style="fill: none; stroke: #b0b0b0; stroke-opacity: 0.3; stroke-width: 0.8; stroke-linecap: square"/>
     </g>
     <g id="line2d_8">
      <g>
       <use xlink:href="#me53b110988" x="445.063439" y="423.6" style="stroke: #000000; stroke-width: 4"/>
      </g>
     </g>
    </g>
    <g id="xtick_5">
     <g id="line2d_9">
      <path d="M 558.130139 423.6 
L 558.130139 7.2 
" clip-path="url(#p7102ba78be)" style="fill: none; stroke: #b0b0b0; stroke-opacity: 0.3; stroke-width: 0.8; stroke-linecap: square"/>
     </g>
     <g id="line2d_10">
      <g>
       <use xlink:href="#me53b110988" x="558.130139" y="423.6" style="stroke: #000000; stroke-width: 4"/>
      </g>
     </g>
    </g>
   </g>
   <g id="matplotlib.axis_2">
    <g id="ytick_1">
     <g id="line2d_11">
      <path d="M 83.25 293.988576 
L 580.743479 293.988576 
" clip-path="url(#p7102ba78be)" style="fill: none; stroke: #b0b0b0; stroke-opacity: 0.3; stroke-width: 0.8; stroke-linecap: square"/>
     </g>
     <g id="line2d_12">
      <defs>
       <path id="mf8fa09ebc0" d="M 0 0 
L -12 0 
" style="stroke: #000000; stroke-width: 4"/>
      </defs>
      <g>
       <use xlink:href="#mf8fa09ebc0" x="83.25" y="293.988576" style="stroke: #000000; stroke-width: 4"/>
      </g>
     </g>
     <g id="text_1">
      <!-- $\mathdefault{10^{-1}}$ -->
      <g transform="translate(7.2 306.449123) scale(0.35 -0.35)">
       <defs>
        <path id="SourceSansPro-Regular-31" d="M 506 0 
L 2810 0 
L 2810 435 
L 1965 435 
L 1965 4083 
L 1562 4083 
C 1338 3949 1069 3846 698 3782 
L 698 3443 
L 1440 3443 
L 1440 435 
L 506 435 
L 506 0 
z
" transform="scale(0.015625)"/>
        <path id="SourceSansPro-Regular-30" d="M 1594 -77 
C 2406 -77 2899 685 2899 2054 
C 2899 3424 2406 4160 1594 4160 
C 774 4160 282 3424 282 2054 
C 282 685 774 -77 1594 -77 
z
M 1594 346 
C 1114 346 794 858 794 2054 
C 794 3251 1114 3738 1594 3738 
C 2067 3738 2387 3251 2387 2054 
C 2387 858 2067 346 1594 346 
z
" transform="scale(0.015625)"/>
        <path id="SourceSansPro-Regular-2212" d="M 218 1914 
L 2963 1914 
L 2963 2310 
L 218 2310 
L 218 1914 
z
" transform="scale(0.015625)"/>
       </defs>
       <use xlink:href="#SourceSansPro-Regular-31" transform="translate(0 0.326562)"/>
       <use xlink:href="#SourceSansPro-Regular-30" transform="translate(49.699997 0.326562)"/>
       <use xlink:href="#SourceSansPro-Regular-2212" transform="translate(100.250385 34.342187) scale(0.7)"/>
       <use xlink:href="#SourceSansPro-Regular-31" transform="translate(135.040382 34.342187) scale(0.7)"/>
      </g>
     </g>
    </g>
    <g id="ytick_2">
     <g id="line2d_13">
      <path d="M 83.25 100.738991 
L 580.743479 100.738991 
" clip-path="url(#p7102ba78be)" style="fill: none; stroke: #b0b0b0; stroke-opacity: 0.3; stroke-width: 0.8; stroke-linecap: square"/>
     </g>
     <g id="line2d_14">
      <g>
       <use xlink:href="#mf8fa09ebc0" x="83.25" y="100.738991" style="stroke: #000000; stroke-width: 4"/>
      </g>
     </g>
     <g id="text_2">
      <!-- $\mathdefault{10^{0}}$ -->
      <g transform="translate(19.45 113.199538) scale(0.35 -0.35)">
       <use xlink:href="#SourceSansPro-Regular-31" transform="translate(0 0.484375)"/>
       <use xlink:href="#SourceSansPro-Regular-30" transform="translate(49.699997 0.484375)"/>
       <use xlink:href="#SourceSansPro-Regular-30" transform="translate(100.250385 34.5) scale(0.7)"/>
      </g>
     </g>
    </g>
    <g id="ytick_3">
     <g id="line2d_15">
      <defs>
       <path id="m47615f3408" d="M 0 0 
L -2 0 
" style="stroke: #000000; stroke-width: 0.6"/>
      </defs>
      <g>
       <use xlink:href="#m47615f3408" x="83.25" y="395.034677" style="stroke: #000000; stroke-width: 0.6"/>
      </g>
     </g>
    </g>
    <g id="ytick_4">
     <g id="line2d_16">
      <g>
       <use xlink:href="#m47615f3408" x="83.25" y="370.890318" style="stroke: #000000; stroke-width: 0.6"/>
      </g>
     </g>
    </g>
    <g id="ytick_5">
     <g id="line2d_17">
      <g>
       <use xlink:href="#m47615f3408" x="83.25" y="352.162498" style="stroke: #000000; stroke-width: 0.6"/>
      </g>
     </g>
    </g>
    <g id="ytick_6">
     <g id="line2d_18">
      <g>
       <use xlink:href="#m47615f3408" x="83.25" y="336.860755" style="stroke: #000000; stroke-width: 0.6"/>
      </g>
     </g>
    </g>
    <g id="ytick_7">
     <g id="line2d_19">
      <g>
       <use xlink:href="#m47615f3408" x="83.25" y="323.923316" style="stroke: #000000; stroke-width: 0.6"/>
      </g>
     </g>
    </g>
    <g id="ytick_8">
     <g id="line2d_20">
      <g>
       <use xlink:href="#m47615f3408" x="83.25" y="312.716396" style="stroke: #000000; stroke-width: 0.6"/>
      </g>
     </g>
    </g>
    <g id="ytick_9">
     <g id="line2d_21">
      <g>
       <use xlink:href="#m47615f3408" x="83.25" y="302.831192" style="stroke: #000000; stroke-width: 0.6"/>
      </g>
     </g>
    </g>
    <g id="ytick_10">
     <g id="line2d_22">
      <g>
       <use xlink:href="#m47615f3408" x="83.25" y="235.814655" style="stroke: #000000; stroke-width: 0.6"/>
      </g>
     </g>
    </g>
    <g id="ytick_11">
     <g id="line2d_23">
      <g>
       <use xlink:href="#m47615f3408" x="83.25" y="201.785092" style="stroke: #000000; stroke-width: 0.6"/>
      </g>
     </g>
    </g>
    <g id="ytick_12">
     <g id="line2d_24">
      <g>
       <use xlink:href="#m47615f3408" x="83.25" y="177.640733" style="stroke: #000000; stroke-width: 0.6"/>
      </g>
     </g>
    </g>
    <g id="ytick_13">
     <g id="line2d_25">
      <g>
       <use xlink:href="#m47615f3408" x="83.25" y="158.912913" style="stroke: #000000; stroke-width: 0.6"/>
      </g>
     </g>
    </g>
    <g id="ytick_14">
     <g id="line2d_26">
      <g>
       <use xlink:href="#m47615f3408" x="83.25" y="143.61117" style="stroke: #000000; stroke-width: 0.6"/>
      </g>
     </g>
    </g>
    <g id="ytick_15">
     <g id="line2d_27">
      <g>
       <use xlink:href="#m47615f3408" x="83.25" y="130.673731" style="stroke: #000000; stroke-width: 0.6"/>
      </g>
     </g>
    </g>
    <g id="ytick_16">
     <g id="line2d_28">
      <g>
       <use xlink:href="#m47615f3408" x="83.25" y="119.466811" style="stroke: #000000; stroke-width: 0.6"/>
      </g>
     </g>
    </g>
    <g id="ytick_17">
     <g id="line2d_29">
      <g>
       <use xlink:href="#m47615f3408" x="83.25" y="109.581607" style="stroke: #000000; stroke-width: 0.6"/>
      </g>
     </g>
    </g>
    <g id="ytick_18">
     <g id="line2d_30">
      <g>
       <use xlink:href="#m47615f3408" x="83.25" y="42.565069" style="stroke: #000000; stroke-width: 0.6"/>
      </g>
     </g>
    </g>
    <g id="ytick_19">
     <g id="line2d_31">
      <g>
       <use xlink:href="#m47615f3408" x="83.25" y="8.535507" style="stroke: #000000; stroke-width: 0.6"/>
      </g>
     </g>
    </g>
   </g>
   <g id="line2d_32">
    <path d="M 105.86334 335.21862 
L 218.93004 281.832086 
L 331.99674 297.127718 
L 445.063439 342.988691 
L 558.130139 316.216339 
" clip-path="url(#p7102ba78be)" style="fill: none; stroke: #d55e00; stroke-width: 4; stroke-linecap: square"/>
    <defs>
     <path id="m0847f21406" d="M 0 5 
C 1.326016 5 2.597899 4.473168 3.535534 3.535534 
C 4.473168 2.597899 5 1.326016 5 0 
C 5 -1.326016 4.473168 -2.597899 3.535534 -3.535534 
C 2.597899 -4.473168 1.326016 -5 0 -5 
C -1.326016 -5 -2.597899 -4.473168 -3.535534 -3.535534 
C -4.473168 -2.597899 -5 -1.326016 -5 0 
C -5 1.326016 -4.473168 2.597899 -3.535534 3.535534 
C -2.597899 4.473168 -1.326016 5 0 5 
z
" style="stroke: #d55e00"/>
    </defs>
    <g clip-path="url(#p7102ba78be)">
     <use xlink:href="#m0847f21406" x="105.86334" y="335.21862" style="fill: #d55e00; stroke: #d55e00"/>
     <use xlink:href="#m0847f21406" x="218.93004" y="281.832086" style="fill: #d55e00; stroke: #d55e00"/>
     <use xlink:href="#m0847f21406" x="331.99674" y="297.127718" style="fill: #d55e00; stroke: #d55e00"/>
     <use xlink:href="#m0847f21406" x="445.063439" y="342.988691" style="fill: #d55e00; stroke: #d55e00"/>
     <use xlink:href="#m0847f21406" x="558.130139" y="316.216339" style="fill: #d55e00; stroke: #d55e00"/>
    </g>
   </g>
   <g id="line2d_33">
    <path d="M 105.86334 283.858555 
L 218.93004 239.046635 
L 331.99674 275.944029 
L 445.063439 244.562017 
L 558.130139 188.36808 
" clip-path="url(#p7102ba78be)" style="fill: none; stroke: #0072b2; stroke-width: 4; stroke-linecap: square"/>
    <defs>
     <path id="m0c3bbc9b44" d="M 0 5 
C 1.326016 5 2.597899 4.473168 3.535534 3.535534 
C 4.473168 2.597899 5 1.326016 5 0 
C 5 -1.326016 4.473168 -2.597899 3.535534 -3.535534 
C 2.597899 -4.473168 1.326016 -5 0 -5 
C -1.326016 -5 -2.597899 -4.473168 -3.535534 -3.535534 
C -4.473168 -2.597899 -5 -1.326016 -5 0 
C -5 1.326016 -4.473168 2.597899 -3.535534 3.535534 
C -2.597899 4.473168 -1.326016 5 0 5 
z
" style="stroke: #0072b2"/>
    </defs>
    <g clip-path="url(#p7102ba78be)">
     <use xlink:href="#m0c3bbc9b44" x="105.86334" y="283.858555" style="fill: #0072b2; stroke: #0072b2"/>
     <use xlink:href="#m0c3bbc9b44" x="218.93004" y="239.046635" style="fill: #0072b2; stroke: #0072b2"/>
     <use xlink:href="#m0c3bbc9b44" x="331.99674" y="275.944029" style="fill: #0072b2; stroke: #0072b2"/>
     <use xlink:href="#m0c3bbc9b44" x="445.063439" y="244.562017" style="fill: #0072b2; stroke: #0072b2"/>
     <use xlink:href="#m0c3bbc9b44" x="558.130139" y="188.36808" style="fill: #0072b2; stroke: #0072b2"/>
    </g>
   </g>
   <g id="line2d_34">
    <path d="M 105.86334 103.604685 
L 218.93004 76.873575 
L 331.99674 116.378365 
L 445.063439 169.853151 
L 558.130139 220.885717 
" clip-path="url(#p7102ba78be)" style="fill: none; stroke: #56b4e9; stroke-width: 4; stroke-linecap: square"/>
    <defs>
     <path id="m1546a3a0f3" d="M 0 5 
C 1.326016 5 2.597899 4.473168 3.535534 3.535534 
C 4.473168 2.597899 5 1.326016 5 0 
C 5 -1.326016 4.473168 -2.597899 3.535534 -3.535534 
C 2.597899 -4.473168 1.326016 -5 0 -5 
C -1.326016 -5 -2.597899 -4.473168 -3.535534 -3.535534 
C -4.473168 -2.597899 -5 -1.326016 -5 0 
C -5 1.326016 -4.473168 2.597899 -3.535534 3.535534 
C -2.597899 4.473168 -1.326016 5 0 5 
z
" style="stroke: #56b4e9"/>
    </defs>
    <g clip-path="url(#p7102ba78be)">
     <use xlink:href="#m1546a3a0f3" x="105.86334" y="103.604685" style="fill: #56b4e9; stroke: #56b4e9"/>
     <use xlink:href="#m1546a3a0f3" x="218.93004" y="76.873575" style="fill: #56b4e9; stroke: #56b4e9"/>
     <use xlink:href="#m1546a3a0f3" x="331.99674" y="116.378365" style="fill: #56b4e9; stroke: #56b4e9"/>
     <use xlink:href="#m1546a3a0f3" x="445.063439" y="169.853151" style="fill: #56b4e9; stroke: #56b4e9"/>
     <use xlink:href="#m1546a3a0f3" x="558.130139" y="220.885717" style="fill: #56b4e9; stroke: #56b4e9"/>
    </g>
   </g>
   <g id="patch_3">
    <path d="M 83.25 423.6 
L 83.25 7.2 
" style="fill: none; stroke: #000000; stroke-width: 2; stroke-linejoin: miter; stroke-linecap: square"/>
   </g>
   <g id="patch_4">
    <path d="M 580.743479 423.6 
L 580.743479 7.2 
" style="fill: none; stroke: #000000; stroke-width: 2; stroke-linejoin: miter; stroke-linecap: square"/>
   </g>
   <g id="patch_5">
    <path d="M 83.25 423.6 
L 580.743479 423.6 
" style="fill: none; stroke: #000000; stroke-width: 2; stroke-linejoin: miter; stroke-linecap: square"/>
   </g>
   <g id="patch_6">
    <path d="M 83.25 7.2 
L 580.743479 7.2 
" style="fill: none; stroke: #000000; stroke-width: 2; stroke-linejoin: miter; stroke-linecap: square"/>
   </g>
  </g>
 </g>
 <defs>
  <clipPath id="p7102ba78be">
   <rect x="83.25" y="7.2" width="497.493479" height="416.4"/>
  </clipPath>
 </defs>
</svg>
